<svg width="32" height="32" viewBox="0 0 32 32" fill="none" xmlns="http://www.w3.org/2000/svg">
<g id="iconoir:design-pencil">
<g id="Group">
<path id="Vector" d="M16 2.66675C8.63596 2.66675 2.66663 8.63608 2.66663 16.0001C2.66663 23.3641 8.63596 29.3334 16 29.3334C23.364 29.3334 29.3333 23.3641 29.3333 16.0001C29.3333 8.63608 23.364 2.66675 16 2.66675Z" stroke="black" stroke-width="1.5" stroke-linecap="round" stroke-linejoin="round"/>
<path id="Vector_2" d="M10.6666 28.2242V18.6668L16 9.3335L21.3333 18.6668V28.2242" stroke="black" stroke-width="1.5" stroke-linecap="round" stroke-linejoin="round"/>
<path id="Vector_3" d="M10.6666 18.6667C10.6666 18.6667 12.1693 20.0001 13.3333 20.0001C14.4973 20.0001 16 18.6667 16 18.6667C16 18.6667 17.5026 20.0001 18.6666 20.0001C19.8306 20.0001 21.3333 18.6667 21.3333 18.6667" stroke="black" stroke-width="1.5" stroke-linecap="round" stroke-linejoin="round"/>
</g>
</g>
</svg>
