<svg width="32" height="32" viewBox="0 0 32 32" fill="none" xmlns="http://www.w3.org/2000/svg">
<g id="arcticons:sketch">
<path id="Vector" d="M6.10668 25.5532L23.08 8.5799M9.47335 26.7266L6.85335 25.9999C6.56959 25.9199 6.31129 25.768 6.1034 25.559C5.89552 25.3499 5.7451 25.0908 5.66668 24.8066L4.93335 22.1866L20.8067 6.31323L25.3333 10.8466L9.47335 26.7266Z" stroke="black" stroke-linecap="round" stroke-linejoin="round"/>
<path id="Vector_2" d="M4.93334 22.1868L3.22 27.6268C3.19066 27.7393 3.19125 27.8575 3.22172 27.9697C3.25219 28.0819 3.31147 28.1842 3.39369 28.2664C3.4759 28.3486 3.57819 28.4079 3.6904 28.4384C3.80261 28.4688 3.92083 28.4694 4.03334 28.4401L9.47334 26.7268M26.146 4.54409L27.122 5.52009C27.356 5.7541 27.5417 6.03191 27.6683 6.33767C27.795 6.64343 27.8602 6.97114 27.8602 7.30209C27.8602 7.63304 27.795 7.96075 27.6683 8.26651C27.5417 8.57227 27.356 8.85008 27.122 9.08409L25.34 10.8661L20.8 6.32609L22.582 4.54409C22.816 4.31006 23.0938 4.12441 23.3996 3.99776C23.7053 3.8711 24.0331 3.80591 24.364 3.80591C24.695 3.80591 25.0227 3.8711 25.3284 3.99776C25.6342 4.12441 25.912 4.31006 26.146 4.54409Z" stroke="black" stroke-linecap="round" stroke-linejoin="round"/>
<path id="Vector_3" d="M4.53334 28.2799C4.60907 28.2042 4.66914 28.1143 4.71012 28.0153C4.75111 27.9164 4.7722 27.8103 4.7722 27.7032C4.7722 27.5961 4.75111 27.4901 4.71012 27.3911C4.66914 27.2922 4.60907 27.2023 4.53334 27.1266C4.45761 27.0508 4.36771 26.9908 4.26876 26.9498C4.16982 26.9088 4.06377 26.8877 3.95667 26.8877C3.84957 26.8877 3.74353 26.9088 3.64458 26.9498C3.54564 26.9908 3.45573 27.0508 3.38 27.1266" stroke="black" stroke-linecap="round" stroke-linejoin="round"/>
</g>
</svg>
